<svg xmlns="http://www.w3.org/2000/svg" width="41" height="41" fill="none"><rect width="41" height="41" fill="#F2F2F2" rx="8"/><path fill="#FBBB00" d="m14.432 23.086-.696 2.6-2.544.053A9.955 9.955 0 0 1 10 21c0-1.658.403-3.222 1.118-4.599l2.266.415.992 2.252a5.944 5.944 0 0 0-.32 1.932c0 .734.133 1.437.376 2.086Z"/><path fill="#518EF8" d="M29.825 19.132a10.018 10.018 0 0 1-.044 3.956 9.998 9.998 0 0 1-3.52 5.71h-.001l-2.853-.146-.404-2.52a5.96 5.96 0 0 0 2.564-3.044H20.22v-3.956h9.605Z"/><path fill="#28B446" d="M26.26 28.798A9.958 9.958 0 0 1 20 31a9.998 9.998 0 0 1-8.808-5.261l3.24-2.653a5.946 5.946 0 0 0 8.57 3.045l3.258 2.667Z"/><path fill="#F14336" d="m26.383 13.302-3.24 2.652a5.948 5.948 0 0 0-8.767 3.114l-3.257-2.667A9.998 9.998 0 0 1 20 11c2.426 0 4.651.864 6.383 2.302Z"/></svg>