<svg xmlns="http://www.w3.org/2000/svg" width="117" height="46" fill="none"><path fill="#944EF5" d="M116.891 33.55C114.264 28.274 109.326 25 104 25s-10.266 3.274-12.891 8.55a.997.997 0 0 0 0 .9C93.734 39.728 98.672 43 104 43s10.266-3.273 12.891-8.55a.993.993 0 0 0 0-.9ZM104 40.75c-4.132 0-8.018-2.576-10.266-6.75 2.248-4.174 6.133-6.75 10.266-6.75 4.132 0 8.018 2.576 10.266 6.75-2.248 4.174-6.132 6.75-10.266 6.75Zm0-11.25c-1.379 0-2.701.474-3.675 1.318-.975.844-1.523 1.99-1.523 3.183 0 1.193.548 2.338 1.523 3.182.974.844 2.296 1.318 3.675 1.318s2.701-.474 3.675-1.318c.975-.844 1.523-1.989 1.523-3.182 0-1.194-.548-2.339-1.523-3.183-.974-.844-2.296-1.318-3.675-1.318Zm0 6.75c-.689 0-1.35-.237-1.837-.659-.487-.422-.761-.994-.761-1.59 0-.597.274-1.17.761-1.591.487-.422 1.148-.659 1.837-.659.689 0 1.35.237 1.837.659.487.422.761.994.761 1.59 0 .597-.274 1.17-.761 1.591-.487.422-1.148.66-1.837.66Z"/><path fill="#fff" d="M8.46 41.28c-1.12 0-2.153-.18-3.1-.54a7.58 7.58 0 0 1-2.48-1.52 7.215 7.215 0 0 1-1.62-2.32C.873 36.02.68 35.053.68 34s.193-2.02.58-2.9a6.991 6.991 0 0 1 1.62-2.3 7.409 7.409 0 0 1 2.48-1.54c.947-.36 1.98-.54 3.1-.54 1.133 0 2.167.18 3.1.54.947.36 1.767.873 2.46 1.54a6.992 6.992 0 0 1 1.62 2.3c.4.88.6 1.847.6 2.9s-.2 2.027-.6 2.92a6.992 6.992 0 0 1-1.62 2.3 7.353 7.353 0 0 1-2.46 1.52c-.933.36-1.967.54-3.1.54Zm0-3.28c.533 0 1.027-.093 1.48-.28a3.386 3.386 0 0 0 1.2-.8c.347-.36.613-.787.8-1.28.2-.493.3-1.04.3-1.64 0-.613-.1-1.16-.3-1.64a3.514 3.514 0 0 0-.8-1.26 3.266 3.266 0 0 0-1.2-.82A3.849 3.849 0 0 0 8.46 30a4 4 0 0 0-1.5.28c-.453.187-.853.46-1.2.82-.333.347-.6.767-.8 1.26-.187.48-.28 1.027-.28 1.64 0 .6.093 1.147.28 1.64.2.493.467.92.8 1.28.347.347.747.613 1.2.8a4 4 0 0 0 1.5.28Zm9.854 3V27h6.4c1.28 0 2.38.207 3.3.62.933.413 1.653 1.013 2.16 1.8.507.773.76 1.693.76 2.76 0 1.053-.253 1.967-.76 2.74-.507.76-1.227 1.347-2.16 1.76-.92.4-2.02.6-3.3.6h-4.2l1.76-1.66V41h-3.96Zm8.66 0-3.48-5.1h4.22l3.5 5.1h-4.24Zm-4.7-4.96-1.76-1.82h3.96c.827 0 1.44-.18 1.84-.54.413-.36.62-.86.62-1.5 0-.653-.207-1.16-.62-1.52-.4-.36-1.013-.54-1.84-.54h-3.96l1.76-1.82v7.74ZM31.44 41l6.18-14h3.9l6.2 14h-4.12l-4.84-12.06h1.56L35.479 41h-4.04Zm3.38-2.72 1.02-2.92h6.84l1.02 2.92h-8.88Zm20.807 3c-1.107 0-2.133-.173-3.08-.52a7.399 7.399 0 0 1-2.44-1.52 7.137 7.137 0 0 1-1.6-2.3c-.387-.893-.58-1.873-.58-2.94s.193-2.04.58-2.92a7.08 7.08 0 0 1 1.6-2.32 7.14 7.14 0 0 1 2.44-1.5c.947-.36 1.973-.54 3.08-.54 1.293 0 2.447.227 3.46.68a6.657 6.657 0 0 1 2.56 1.96l-2.52 2.28c-.453-.533-.953-.94-1.5-1.22-.533-.28-1.133-.42-1.8-.42-.573 0-1.1.093-1.58.28-.48.187-.893.46-1.24.82-.333.347-.6.767-.8 1.26a4.6 4.6 0 0 0-.28 1.64c0 .6.093 1.147.28 1.64.2.493.467.92.8 1.28.347.347.76.613 1.24.8.48.187 1.007.28 1.58.28.667 0 1.267-.14 1.8-.42.547-.28 1.047-.687 1.5-1.22l2.52 2.28a6.926 6.926 0 0 1-2.56 1.96c-1.013.453-2.167.68-3.46.68Zm7.786-.28V27h3.96v10.86h6.68V41h-10.64Zm15.847-8.58h6.5v2.96h-6.5v-2.96Zm.28 5.52h7.32V41h-11.24V27h10.98v3.06h-7.06v7.88Z"/><path fill="#944EF5" d="M1.4 19V5h3.96v10.86h6.68V19H1.4Zm18.53.28c-2.066 0-3.68-.567-4.84-1.7-1.16-1.133-1.74-2.74-1.74-4.82V5h3.96v7.64c0 1.2.234 2.06.7 2.58.48.52 1.134.78 1.96.78.827 0 1.474-.26 1.94-.78.467-.52.7-1.38.7-2.58V5h3.9v7.76c0 2.08-.58 3.687-1.74 4.82-1.16 1.133-2.773 1.7-4.84 1.7Zm16.243 0c-1.107 0-2.133-.173-3.08-.52a7.398 7.398 0 0 1-2.44-1.52 7.135 7.135 0 0 1-1.6-2.3c-.387-.893-.58-1.873-.58-2.94s.193-2.04.58-2.92a7.078 7.078 0 0 1 1.6-2.32 7.138 7.138 0 0 1 2.44-1.5c.947-.36 1.973-.54 3.08-.54 1.293 0 2.447.227 3.46.68a6.658 6.658 0 0 1 2.56 1.96l-2.52 2.28c-.453-.533-.953-.94-1.5-1.22-.533-.28-1.133-.42-1.8-.42-.573 0-1.1.093-1.58.28-.48.187-.893.46-1.24.82-.333.347-.6.767-.8 1.26a4.6 4.6 0 0 0-.28 1.64c0 .6.093 1.147.28 1.64.2.493.467.92.8 1.28.347.347.76.613 1.24.8.48.187 1.007.28 1.58.28.667 0 1.267-.14 1.8-.42.547-.28 1.047-.687 1.5-1.22l2.52 2.28a6.927 6.927 0 0 1-2.56 1.96c-1.013.453-2.167.68-3.46.68Zm11.326-3.38-.22-4.44L53.299 5h4.36l-6 6.5-2.2 2.3-1.96 2.1Zm-3.54 3.1V5h3.92v14h-3.92Zm9.4 0-4.56-5.78 2.58-2.76 6.58 8.54h-4.6Zm8.124 0v-5.92l.92 2.38L56.143 5h4.18l4.52 7.58h-2.42L66.963 5h3.84l-6.24 10.46.88-2.38V19h-3.96Z"/><path fill="#fff" d="M74.675 19.28c-1.027 0-1.96-.173-2.8-.52a5.413 5.413 0 0 1-2.06-1.54l2.16-2.56c.373.48.76.847 1.16 1.1.4.24.82.36 1.26.36 1.173 0 1.76-.68 1.76-2.04V8.06h-4.84V5h8.76v8.84c0 1.827-.46 3.193-1.38 4.1-.92.893-2.26 1.34-4.02 1.34Zm11.713-8.86h6.5v2.96h-6.5v-2.96Zm.28 5.52h7.32V19h-11.24V5h10.98v3.06h-7.06v7.88ZM99.165 19V8.14h-4.3V5h12.54v3.14h-4.28V19h-3.96Z"/></svg>