<svg xmlns="http://www.w3.org/2000/svg" width="41" height="41" fill="none"><rect width="41" height="41" fill="#005FF9" rx="8"/><path fill="#FF9E00" d="M24.008 21A3.011 3.011 0 0 1 21 24.008 3.011 3.011 0 0 1 17.992 21 3.011 3.011 0 0 1 21 17.992 3.011 3.011 0 0 1 24.008 21ZM21 11c-5.514 0-10 4.486-10 10s4.486 10 10 10a9.945 9.945 0 0 0 5.633-1.739l.028-.02-1.347-1.567-.022.015A7.912 7.912 0 0 1 21 28.95c-4.383 0-7.95-3.567-7.95-7.95s3.567-7.95 7.95-7.95 7.95 3.567 7.95 7.95c0 .568-.063 1.143-.187 1.709-.252 1.032-.974 1.348-1.516 1.305-.546-.044-1.185-.433-1.19-1.383V21A5.064 5.064 0 0 0 21 15.942 5.064 5.064 0 0 0 15.942 21 5.064 5.064 0 0 0 21 26.058a5.014 5.014 0 0 0 3.583-1.492 3.253 3.253 0 0 0 2.768 1.504c.728 0 1.448-.244 2.03-.684.599-.456 1.047-1.115 1.295-1.905.038-.128.11-.42.11-.422l.003-.011C30.936 22.414 31 21.78 31 21c0-5.514-4.486-10-10-10Z"/></svg>