<svg xmlns="http://www.w3.org/2000/svg" width="41" height="41" fill="none"><rect width="41" height="41" fill="url(#a)" rx="8"/><path fill="#FEFEFD" fill-rule="evenodd" d="M15.714 16.066a5.071 5.071 0 1 1 10.143.01 5.071 5.071 0 0 1-10.143-.01Zm5.074 2.098a2.096 2.096 0 1 0-2.104-2.086 2.105 2.105 0 0 0 2.104 2.085Z" clip-rule="evenodd"/><path fill="#FEFEFD" fill-rule="evenodd" d="M18.91 25.195a9.724 9.724 0 0 1-1.637-.483 7.588 7.588 0 0 1-1.675-.898c-.486-.355-.69-.84-.56-1.43.127-.587.505-.94 1.09-1.058a1.26 1.26 0 0 1 .995.194c1.16.806 2.456 1.128 3.85 1.08 1.114-.037 2.155-.333 3.097-.938.208-.134.405-.277.655-.33a1.377 1.377 0 0 1 1.116 2.454c-.7.52-1.484.877-2.31 1.145-.305.1-.615.177-.929.246.007.064.057.085.09.117l2.921 2.902c.43.425.548 1.01.324 1.538a1.366 1.366 0 0 1-2.204.472c-.75-.706-1.477-1.433-2.215-2.15-.236-.23-.476-.457-.71-.692-.078-.08-.118-.07-.19.008-.858.92-1.718 1.837-2.58 2.753-.457.483-1.143.593-1.692.28a1.376 1.376 0 0 1-.325-2.16c.388-.415.78-.822 1.175-1.232l1.603-1.677a.354.354 0 0 0 .111-.141Z" clip-rule="evenodd"/><defs><linearGradient id="a" x1="0" x2="41" y1="0" y2="41" gradientUnits="userSpaceOnUse"><stop stop-color="#FBB22E"/><stop offset="1" stop-color="#FE8C04"/></linearGradient></defs></svg>