<svg xmlns="http://www.w3.org/2000/svg" width="41" height="41" fill="none"><rect width="41" height="41" fill="url(#a)" rx="8"/><path fill="#fff" d="M24.031 17.028v.065l-3.21 4.698a3.58 3.58 0 0 0-2.152.6L6.017 17.228s-.163 2.703.517 4.718l10.585 4.31a3.654 3.654 0 0 0 2.15 2.59c1.852.78 3.988-.108 4.758-1.974.2-.488.294-1 .28-1.51l4.596-3.307.112.002c2.75 0 4.985-2.257 4.985-5.03C34 14.256 31.765 12 29.015 12c-2.748 0-4.984 2.255-4.984 5.028Zm-4.443 11.045a2.8 2.8 0 0 1-1.445-1.388l1.623.677a2.062 2.062 0 0 0 2.703-1.123 2.09 2.09 0 0 0-1.113-2.726l-1.678-.7a2.794 2.794 0 0 1 3.587 1.568c.285.698.283 1.47-.005 2.166a2.803 2.803 0 0 1-3.672 1.526Zm6.106-11.045c0-1.846 1.49-3.35 3.321-3.35 1.832 0 3.322 1.504 3.322 3.35 0 1.848-1.49 3.35-3.322 3.35-1.83 0-3.32-1.502-3.32-3.35Zm3.327-2.523c1.378 0 2.495 1.128 2.495 2.518a2.505 2.505 0 0 1-2.495 2.516 2.505 2.505 0 0 1-2.494-2.516c0-1.39 1.117-2.518 2.494-2.518Z"/><defs><linearGradient id="a" x1="20.5" x2="20.5" y1="0" y2="41" gradientUnits="userSpaceOnUse"><stop offset=".226" stop-color="#0E1B30"/><stop offset="1" stop-color="#1377A8"/></linearGradient></defs></svg>