<svg xmlns="http://www.w3.org/2000/svg" width="41" height="41" fill="none"><rect width="41" height="41" fill="url(#a)" rx="8"/><path fill="#C8DAEA" d="M16.94 29.727c-.709 0-.588-.267-.833-.942l-2.082-6.852 16.028-9.509"/><path fill="#A9C9DD" d="M16.94 29.727c.546 0 .787-.25 1.092-.546l2.914-2.834-3.635-2.192"/><path fill="url(#b)" d="m17.311 24.156 8.808 6.507c1.005.555 1.73.267 1.98-.933l3.586-16.895c.367-1.472-.56-2.14-1.522-1.703L9.11 19.25c-1.437.576-1.43 1.378-.262 1.735l5.402 1.687 12.508-7.892c.59-.359 1.133-.166.688.229"/><defs><linearGradient id="a" x1="36.5" x2="0" y1="3" y2="41" gradientUnits="userSpaceOnUse"><stop stop-color="#37AEE2"/><stop offset="1" stop-color="#1E96C8"/></linearGradient><linearGradient id="b" x1="1576.64" x2="1917.74" y1="882.145" y2="1659.3" gradientUnits="userSpaceOnUse"><stop stop-color="#EFF7FC"/><stop offset="1" stop-color="#fff"/></linearGradient></defs></svg>