<svg xmlns="http://www.w3.org/2000/svg" width="41" height="41" fill="none"><rect width="41" height="41" fill="url(#a)" rx="8"/><path fill="#fff" fill-rule="evenodd" d="M20.762 26.502h1.315s.398-.044.6-.263c.187-.2.18-.578.18-.578s-.024-1.766.794-2.024c.808-.256 1.845 1.706 2.943 2.46.83.57 1.463.446 1.463.446l2.939-.04s1.537-.096.808-1.305c-.06-.1-.424-.894-2.185-2.528-1.843-1.71-1.596-1.434.624-4.392 1.352-1.8 1.892-2.9 1.723-3.372-.161-.449-1.156-.33-1.156-.33l-3.308.02a.751.751 0 0 0-.424.076c-.178.107-.292.353-.292.353s-.524 1.395-1.222 2.58c-1.473 2.502-2.063 2.635-2.303 2.48-.56-.363-.42-1.456-.42-2.23 0-2.426.367-3.437-.716-3.699-.36-.086-.625-.14-1.545-.153-1.18-.013-2.18.003-2.745.282-.376.185-.667.595-.49.62.219.028.714.132.977.49.34.461.327 1.497.327 1.497s.195 2.855-.455 3.21c-.446.242-1.06-.254-2.371-2.524-.446-.79-.84-1.608-1.181-2.448a.983.983 0 0 0-.273-.37 1.368 1.368 0 0 0-.508-.205l-3.144.021s-.472.014-.645.22c-.154.183-.012.56-.012.56s2.46 5.761 5.247 8.658c2.558 2.664 5.455 2.488 5.455 2.488Z" clip-rule="evenodd"/><defs><linearGradient id="a" x1="20.5" x2="20.5" y1="0" y2="41" gradientUnits="userSpaceOnUse"><stop stop-color="#4074A2"/><stop offset="1" stop-color="#2F5C89"/></linearGradient></defs></svg>